<?xml version="1.0" standalone="no"?>
<svg xmlns="http://www.w3.org/2000/svg" height="957pt" preserveAspectRatio="xMidYMid meet" viewBox="0 0 1920 957" width="1920pt">
  <path d="m159 9556c-113-40-176-153-149-265 18-78 67-125 196-190l109-56 704-1870 703-1870-106-965c-58-531-106-973-106-982 0-16-11-18-89-18-105 0-121-5-121-35 0-35 20-44 109-47l84-3-2-110c-6-286-18-665-22-669-2-2-103-9-224-16-131-7-233-18-252-26-18-7-42-28-53-46-18-28-21-44-16-108 6-90 114-477 156-560 54-105 132-158 275-185 104-20 422-38 530-30 363 27 819 216 1325 550 149 98 259 196 274 243 5 15 15 17 77 14 59-4 75-1 98 16 36 26 114 31 163 9 64-29 154-18 188 22 22 26 117 44 158 30 56-19 163 18 177 61 9 27 111 59 167 53 59-7 132 24 156 66 21 37 94 71 152 71 71 0 160 50 160 90 0 25 98 86 148 93 53 7 112 44 132 83 24 46 50 59 50 25 0-43 23-40 121 15l96 53 2399-9c1320-5 2640-10 2935-10h536l63-222c35-123 67-231 72-240 6-14 21-18 56-18 46 0 54 6 392 265 190 146 350 264 355 264 6 0 57-21 113-47l104-47 66-120 67-120-5-185c-3-102-4-186-4-188 1-2 129-6 284-10l283-7-2-92-2-93h80c44 0 82-4 86-9 3-5 2-40-1-78l-6-68-242 11c-132 7-279 17-326 23-258 33-783 61-1140 61-883-1-1330-101-1549-347-126-141-191-363-191-653 0-191 36-291 141-399 64-66 180-130 284-156 171-44 283-50 910-50 360 0 692 5 830 13 127 7 352 19 502 28l271 16 42-46c81-88 219-161 361-191 181-39 322-47 909-52 733-6 987 5 2565 117 385 27 774 54 865 59 181 11 245 27 332 82 111 72 212 229 259 404 29 109 37 349 15 453-20 97-62 186-103 222-217 191-1133 326-2268 335-203 1-488 8-633 16l-263 13 3 75 3 76 148-4 147-3v106c0 94 2 106 18 106 46-1 3712 171 3748 176l42 5 55 152c30 84 58 160 62 169 7 17-7 18-203 18h-210l-6 63c-4 34-27 381-51 771-36 559-49 716-61 743-21 42-64 74-112 80-20 2-498-10-1062-27-876-27-1565-39-1577-27-5 6-43 712-44 817s-12 136-59 164c-38 22-89 20-125-4-38-25-51-25-99 1-21 11-60 22-86 24-25 2-307 73-626 159-878 235-6108 1637-7379 1977-1655 443-1546 413-4360 1204-1435 403-2639 741-2675 751s-92 30-125 46c-66 31-118 35-176 14zm1210-356c412-115 753-210 757-210s5-2 2-5-196 46-429 109-550 148-705 190c-154 41-305 87-335 100-30 14-51 25-47 25 4 1 344-93 757-209zm1761-530c2944-789 2425-646 5450-1497 1438-404 3544-995 4680-1314s2080-584 2098-590c17-6 32-15 32-20 0-11-490-539-500-539-4 0-11 126-15 280l-7 280h-32c-17 0-562 14-1211 30s-1192 30-1207 30h-28v-127c0-145-12-207-38-200-9 2-1002 369-2207 815-5709 2113-8555 3166-8930 3304-226 83-417 158-425 166-13 12-13 13 5 8 11-3 1062-285 2335-626zm-2122 367c78-35 145-66 147-69 3-3-26-11-64-18l-70-13-73 43c-153 90-149 87-137 114 13 29-4 34 197-57zm384-21c80-30 943-350 1919-711s2708-1003 3849-1425 2777-1028 3635-1345c858-318 1561-578 1562-579s-63-260-142-575l-143-574 84-152c46-84 84-155 84-159s-10 0-22 8c-13 8-880 484-1928 1059-1890 1036-1920 1052-3767 2006l-1862 961-1663 746c-1775 796-1766 792-1757 793 3 1 71-23 151-53zm-800-76c32 0 75 7 96 16l39 15 1789-1059 1789-1059 1900-960 1900-961 1733-778c1341-602 1730-780 1720-789-7-7-61-42-121-80-79-49-106-72-103-84 37-128 48-172 43-177-3-4-1324-1-2935 4l-2929 11-132 60c-196 89-3241 1963-3241 1994 0 27-27 69-62 97-43 33-96 52-203 69l-99 17-703 1864c-386 1026-702 1868-702 1872-1 4 36-11 81-32 66-33 93-40 140-40zm1575 34c-3-3-12-4-19-1-8 3-5 6 6 6 11 1 17-2 13-5zm-861-72c6-4 16-17 23-29 12-24 12-23-88-46-16-4-40 3-70 21l-46 27 70 17c81 19 96 20 111 10zm273-196c28-49 50-90 48-92s-14-5-27-6c-20-3-31 10-77 87-29 50-53 93-53 97 0 8 43 16 51 9 3-4 29-46 58-95zm-170 29c11-19 18-35 16-35-10 0-95 55-95 62s41 16 51 11c4-2 16-19 28-38zm336-30 60-27-45-17c-25-10-48-16-52-14-6 3-58 92-58 100 0 2 8-1 18-6 9-5 44-21 77-36zm195-107c11-18 20-38 20-44 0-8-85-42-155-62-6-1-21 15-34 38-17 31-19 41-9 45 7 2 42 16 78 29 36 14 68 25 73 26 4 0 16-15 27-32zm275-218c38-76 67-141 65-144-3-2-16-7-30-10-24-6-29 2-95 130-85 165-80 151-58 157 44 12 49 7 118-133zm-166 9c24-45 39-80 34-78-26 11-203 115-203 120 0 6 87 37 110 38 9 0 33-32 59-80zm308 42c184-82 205-92 202-96-3-2-47-19-100-38l-96-35-51 104c-29 57-50 104-47 104 2 0 44-18 92-39zm341-193c8-31 7-38-6-43-29-11-244-85-248-85-2 0-13 18-24 40-16 31-18 42-8 45 173 62 264 92 270 87 3-4 11-24 16-44zm221-125c11-38 36-114 55-171l35-103-26-10c-62-23-61-25-113 136-63 196-62 185-20 201 19 7 38 13 42 13 4 1 16-29 27-66zm290-64 184-83-144-48c-79-26-149-48-156-48-10 0-93 236-93 265 0 9-12 14 209-86zm-436-46c20-64 36-118 34-119-2-2-64 34-140 79-75 45-133 85-129 88 8 8 172 68 188 68 6 1 27-52 47-116zm746-130c6-20 9-38 7-40s-90-32-195-68c-190-63-192-64-200-42-26 70-39 60 161 125 101 33 191 60 200 61 12 1 20-11 27-36zm265-287c31-114 56-214 56-221 0-12-78-50-86-42-6 6-125 450-121 453 10 10 83 31 88 25 4-3 32-100 63-215zm320 61c137-61 243-113 235-116-8-2-104-37-214-77s-201-72-202-71c-3 3-103 374-103 382 0 10-1 10 284-118zm-502-78c26-96 46-177 45-180-2-7-427 243-427 252 0 7 312 108 325 105 5-1 31-81 57-177zm875-174c-6-4-484-174-496-177-8-2-18 13-26 40-12 39-11 44 3 50 10 3 125 45 257 93l240 87 12-46c7-26 11-47 10-47zm252-268c30-138 56-257 58-263s-19-23-47-38c-27-15-50-25-50-22 0 4-23 108-51 234l-51 227 28 50c25 46 41 65 54 65 3 0 29-114 59-253zm493-32c0-9-351-200-357-193-5 4-95 407-95 424 0 6 102-41 226-105s226-121 226-126zm-838 56c-47-84-89-151-93-149-22 9-241 143-241 148s413 158 418 155c1-1-36-70-84-154zm-514 109c0-5-2-10-4-10-3 0-8 5-11 10-3 6-1 10 4 10 6 0 11-4 11-10zm694-255c15-71 30-138 33-148 3-14-16-7-91 30-53 26-96 51-96 55 0 18 113 209 120 201 4-4 19-66 34-138zm760-22c4-31 3-60-1-64-13-12-401-219-411-219-14 0-31 109-18 118 28 17 412 222 417 222 3 0 9-26 13-57zm109 13c16-12 16-14 1-20-20-8-34 1-34 20 0 17 10 17 33 0zm4094-42c-3-3-12-4-19-1-8 3-5 6 6 6 11 1 17-2 13-5zm617-163c496-134 4880-1309 5176-1388 52-14 96-26 98-28 6-6-34-65-45-65-6 0-990 275-2185 611-1195 335-2495 700-2888 810s-726 204-740 209c-79 27 53-6 584-149zm-4578-93c18-128 34-236 34-240 0-11-101-61-108-54-4 5-70 434-72 468 0 7 103 66 108 62 2-1 19-107 38-236zm459-9 49-28-54-25c-30-13-119-54-198-90-93-42-144-61-147-53-4 11-55 384-55 399 0 6 297-143 405-203zm-652-51c15-105 25-193 23-195s-95 42-207 97c-176 88-200 104-183 113 111 63 321 176 329 176 6 1 22-82 38-191zm-560 112c3-11 2-20-3-20-12 0-31 26-23 33 11 12 21 7 26-13zm1382-186c9-25 16-47 14-48-10-8-503-226-505-223-2 1-4 27-6 56l-3 53 230 103c127 57 235 104 241 105 6 0 19-21 29-46zm330-380c72-173 131-319 133-323 4-12-60-33-69-24-6 6-212 496-266 629-4 11 32 32 57 33 10 1 55-96 145-315zm-166-15c62-149 111-271 109-272-1-1-156 75-343 170l-340 171 35 15c19 9 121 54 225 101 105 47 193 86 196 86s57-122 118-271zm566 56c322-165 336-173 328-178-35-19-507-167-513-161-9 9-230 537-230 549 0 3 42-16 93-43 50-27 196-102 322-167zm-1311 119c5-12 2-15-10-10-8 3-18 6-20 6-3 0-2 5 1 10 9 15 22 12 29-6zm1758-398 3-39-280-93c-154-52-283-94-287-94-6 0-26 52-29 75-1 11 572 203 583 195 4-3 8-23 10-44zm98-6c0-5-2-10-4-10-3 0-8 5-11 10-3 6-1 10 4 10 6 0 11-4 11-10zm151-277c21-120 41-230 44-244 5-22 0-28-45-49-27-13-52-22-54-19-4 4-81 424-88 478-3 21 4 26 47 41 28 10 51 16 53 15 2-2 21-101 43-222zm509-63c0-7-379-174-384-169-2 2-18 87-35 189-18 102-35 193-38 203-3 13 60-15 226-100 127-65 231-120 231-123zm-696 7c21-115 36-211 33-213-2-2-127 59-278 135-160 82-267 142-259 145 105 40 457 152 461 147 4-3 23-100 43-214zm809-104c8-27 11-51 8-54-11-12-464-209-469-205-5 6-23 99-20 101 11 6 454 203 460 204 4 1 13-20 21-46zm271-314c40-144 65-254 60-259-5-4-25-15-45-23l-36-15-67 243c-38 138-64 250-60 260 6 14 53 43 74 45 3 0 36-113 74-251zm276 58c107-58 203-112 214-120 16-12 0-21-163-89-152-64-181-73-185-59-26 87-106 383-106 392 0 8 7 7 23-3 12-8 110-62 217-121zm-587 76c-31-81-111-245-118-243-6 1-57 26-115 55-86 44-101 55-85 61 11 4 88 38 170 76 83 37 151 67 152 68 1 0-1-8-4-17zm-513-28c0-8-4-15-9-15-13 0-22 16-14 24 11 11 23 6 23-9zm7940-50c0-17-87-115-101-115-23 0-5 30 28 47 20 11 44 34 52 51 18 36 21 38 21 17zm-7275-155c49-172 56-163-75-101l-77 36 50 113c28 62 52 110 55 108 2-3 24-73 47-156zm7475 58c0-18 9-188 20-378s20-351 20-357c0-10-34-13-135-13h-135v28c-1 15-13 141-29 280l-27 253 90 97c76 82 96 98 128 103 21 3 41 8 44 12 15 15 24 6 24-25zm-341-45c1-16-76-106-265-310-147-159-282-304-301-323l-34-35 3 47c3 46 6 50 293 360 293 317 302 325 304 261zm-6348-88 17-44-220-91c-121-50-223-89-226-85-4 3-12 25-19 47l-12 40 57 25c216 93 378 159 382 156 2-2 12-24 21-48zm-5434-954 1551-954 15-56c18-63 13-71-41-71-18 0-47-6-65-14-35-14-97-78-97-100 0-23-98-77-147-81-54-4-128-46-147-84-18-35-91-65-161-66-58-2-124-32-148-68-22-34-107-62-178-58-63 2-132-20-153-51-8-11-37-25-71-33-50-11-62-11-93 2-46 19-134 13-161-11-29-27-121-33-156-10-17 11-47 18-80 18-51 1-53 2-73 41-11 23-25 82-32 140-13 108-47 224-85 289-51 87-143 154-235 171-34 6-50 30-609 928-315 507-574 926-575 931 0 5 24 18 55 28s69 32 85 48c16 15 34 25 40 22 6-4 708-436 1561-961zm5719 655c46-127 82-232 80-234-3-2-22-6-43-9l-39-5-79 218c-43 121-80 224-82 230-5 13 35 34 61 31 16-2 35-46 102-231zm-6935-718c316-506 575-925 577-929s-14-13-35-20c-99-32-200-194-253-401l-28-113-139-6c-76-4-211-10-300-14l-163-7v39c0 44-27 514-35 621l-6 72h64c65 0 87 10 87 42 0 26-31 38-98 38-60 0-60 0-66 33-3 17-64 365-136 772s-134 750-136 762c-6 23 7 30 62 32 31 1 39-12 605-921zm13044 664c15-139 26-254 24-255s-120 0-262 3l-259 5 233 252c128 139 234 251 235 250s14-116 29-255zm-13751 221c18-85 277-1556 274-1558-2-1-117 0-255 3-250 5-253 5-253 26 0 24 157 1473 166 1524 4 27 9 32 34 32 23 0 30-5 34-27zm7428-65c14-40 44-123 66-185l41-112-112 51c-62 27-168 75-237 105s-129 59-133 63c-5 4 38 27 95 50 57 24 132 56 168 71 36 16 70 28 76 29 6 0 22-33 36-72zm525-90c152-83 272-153 267-154-43-12-399-74-407-71-9 3-149 377-141 377 3 0 129-68 281-152zm417-234c9-8 16-21 16-27 0-13-483-106-513-99-17 4-43 40-34 48 6 6 458 92 489 93 15 1 34-6 42-15zm199-105c16-7 59-75 135-212 99-180 109-202 91-205-11-2-26-1-33 1-8 3-55 81-106 174-51 92-104 187-117 211-27 45-19 54 30 31zm-42-176c50-93 94-171 96-175s-45 14-104 41c-59 26-191 85-293 131-102 45-188 85-193 89-6 6 336 77 385 80 12 1 44-49 109-166zm427-33c116-63 212-118 212-121 0-4-221-57-263-63-4-1-45 68-92 152-46 84-81 152-76 150 4-2 103-55 219-118zm376-219c23-25 35-20-167-66-145-32-160-34-186-20-57 29-47 41 57 65 53 12 131 30 172 40 78 18 92 16 124-19zm327-272c59-90 107-165 105-166-2-2-15 2-29 8-16 7-67 73-136 178-61 92-111 170-111 174s14-2 31-12c19-12 72-81 140-182zm-175 46c45-66 81-121 80-122-1-2-87 36-192 83-104 47-200 91-214 96-22 10-13 14 85 39 61 15 121 27 135 26 19-2 41-27 106-122zm584-166 105-59h-70c-38 0-108 3-153 7l-84 6-79 118c-43 65-79 120-79 123 0 4 89-45 360-195zm285-156c15-9-22-10-165-6-246 8-277 23-40 20 119-1 192-6 205-14zm-4-93h97l56-75c31-41 56-76 56-79 0-2-75 30-167 71-163 73-217 103-163 89 14-3 68-6 121-6zm-10065-83c6-5 43-603 44-687v-45l-62-3c-86-3-455-22-498-25-29-2-35 1-35 18 0 91 17 751 20 755 4 7 524-6 531-13zm3128-323c9-22 9-22-21-38-23-11-30-12-40-1s-7 18 15 34c33 25 38 25 46 5zm-2018-79c37-38 72-120 87-210l13-80-154-3c-85-1-156-1-158 1-7 6 35 145 61 204 48 108 101 138 151 88zm1749-105c6-10-51-50-71-50-7 0-14 7-18 15-10 26 74 59 89 35zm-323-168c-27-21-63-26-72-11-12 18-4 27 33 37 40 10 65-6 39-26zm-309-107c0-5-20-16-43-24-36-12-44-12-51 0-13 20-11 27 9 32 29 8 87 3 85-8zm-353-59c0-2 3-11 6-20 5-13-2-16-40-16-39 0-46 3-46 20s7 20 40 20c22 0 40-2 40-4zm-332-28c3-15-4-18-42-18-49 0-66 13-39 29s77 9 81-11z" transform="matrix(.1 0 0 -.1 0 957)" fill="#000000" stroke="none" stroke-width="2" vector-effect="non-scaling-stroke"/>
</svg>
